<?xml version="1.0" encoding="UTF-8"?>
<!-- Created with Inkscape (http://www.inkscape.org/) -->
<svg width="100mm" height="100mm" version="1.1" viewBox="0 0 100 100" xmlns="http://www.w3.org/2000/svg" xmlns:cc="http://creativecommons.org/ns#" xmlns:dc="http://purl.org/dc/elements/1.1/" xmlns:rdf="http://www.w3.org/1999/02/22-rdf-syntax-ns#">
 <title>青年共进社社徽-新-2版</title>
 <defs>
  <style type="text/css"/>
 </defs>
 <g stroke-linecap="round" stroke-linejoin="round">
  <path d="m50.926 0.5085c-7.9115-0.14801-15.743 1.6028-22.838 5.1056-13.466 6.648-23.186 19.05-26.423 33.714-2.9095 13.178-0.3123 26.973 7.1903 38.19 7.5025 11.218 19.26 18.886 32.55 21.229l0.9555-5.4162c3.7866 0.66757 7.6444 0.83592 11.475 0.50074l0.47956 5.4793c4.3094-0.37699 8.5508-1.3172 12.616-2.7967l-1.881-5.1687c3.6133-1.3151 7.0387-3.0981 10.189-5.3036l3.1548 4.5052c3.5435-2.4813 6.7465-5.4164 9.5271-8.7302l-4.2132-3.5352c2.4717-2.9455 4.5466-6.2024 6.1717-9.6873l4.9847 2.3244c1.8281-3.9207 3.1345-8.0641 3.8855-12.324l-5.4162-0.95498c0.66761-3.7868 0.83596-7.6447 0.50074-11.475l5.4793-0.47956c-0.37699-4.3094-1.3172-8.5508-2.7967-12.616l-5.1687 1.8815c-1.3151-3.6133-3.0981-7.0387-5.3036-10.189l4.5052-3.1548c-2.4813-3.5435-5.4164-6.7465-8.7302-9.5271l-3.5352 4.2132c-2.9455-2.4717-6.2024-4.5466-9.6873-6.1717l2.3244-4.9847c-6.2681-2.9229-13.079-4.4998-19.994-4.6292z" color="#000000" fill="#daa520" style="-inkscape-stroke:none;paint-order:stroke fill markers"/>
  <path d="m84.56 50a34.56 34.56 0 0 1-34.56 34.56 34.56 34.56 0 0 1-34.56-34.56 34.56 34.56 0 0 1 34.56-34.56 34.56 34.56 0 0 1 34.56 34.56z" color="#000000" fill="#ed2c25" stroke-width="2.88" style="-inkscape-stroke:none;paint-order:stroke fill markers"/>
  <path d="m49.438 0.0020671c-7.4802 0.084176-14.854 1.847-21.573 5.164-13.602 6.715-23.42 19.243-26.69 34.055-2.9388 13.311-0.31457 27.245 7.2636 38.576 7.5781 11.331 19.453 19.077 32.877 21.444a0.50005 0.50005 0 0 0 0.58033-0.40669l0.87282-4.9547c3.5057 0.5775 7.0649 0.73271 10.608 0.46302l0.43925 5.0136a0.50005 0.50005 0 0 0 0.54105 0.45475c4.3529-0.3808 8.6379-1.3318 12.744-2.8262a0.50005 0.50005 0 0 0 0.29921-0.64027l-1.7208-4.7289c3.3248-1.2527 6.4827-2.8971 9.416-4.902l2.8866 4.1207a0.50005 0.50005 0 0 0 0.69711 0.12351c3.5793-2.5063 6.8145-5.4712 9.6232-8.8186a0.50005 0.50005 0 0 0-0.06253-0.70332l-3.8556-3.2339c2.2536-2.7477 4.167-5.752 5.7051-8.9555l4.561 2.127a0.50005 0.50005 0 0 0 0.66611-0.24184c1.8466-3.9603 3.1651-8.1461 3.9238-12.449a0.50005 0.50005 0 0 0-0.40669-0.57826l-4.9547-0.87282c0.57754-3.5059 0.73275-7.0647 0.46302-10.608l5.0136-0.43925a0.50005 0.50005 0 0 0 0.45475-0.54105c-0.3808-4.3529-1.3318-8.6384-2.8262-12.744a0.50005 0.50005 0 0 0-0.64027-0.29869l-4.7289 1.7229c-1.2527-3.3249-2.8971-6.4847-4.902-9.418l4.1207-2.8866a0.50005 0.50005 0 0 0 0.12351-0.69763c-2.5063-3.5793-5.4712-6.814-8.8186-9.6227a0.50005 0.50005 0 0 0-0.70332 0.06253l-3.2339 3.8551c-2.7477-2.2536-5.752-4.167-8.9555-5.7051l2.127-4.5604a0.50005 0.50005 0 0 0-0.24184-0.66611c-6.3314-2.9524-13.211-4.5451-20.196-4.6757-0.49946-0.0093438-0.99839-0.011296-1.4971-0.0056844zm0.0052 0.50074c0.49368-0.005548 0.98761-0.003566 1.4821 0.005684 6.9149 0.12933 13.726 1.7063 19.994 4.6292l-2.3244 4.9847c3.4849 1.6251 6.7417 3.7 9.6873 6.1717l3.5352-4.2132c3.3139 2.7806 6.2489 5.9835 8.7302 9.5271l-4.5052 3.1548c2.2054 3.1498 3.9885 6.5752 5.3036 10.189l5.1687-1.8815c1.4795 4.065 2.4197 8.3064 2.7967 12.616l-5.4793 0.47956c0.33522 3.8305 0.16687 7.6885-0.50074 11.475l5.4162 0.95498c-0.75109 4.2602-2.0574 8.4036-3.8855 12.324l-4.9847-2.3244c-1.6251 3.4849-3.7 6.7417-6.1717 9.6873l4.2132 3.5352c-2.7806 3.3139-5.9835 6.2489-9.5271 8.7302l-3.1549-4.5052c-3.1498 2.2054-6.5752 3.9885-10.189 5.3036l1.881 5.1687c-4.065 1.4795-8.3064 2.4197-12.616 2.7967l-0.47956-5.4793c-3.8304 0.33517-7.6881 0.16682-11.475-0.50074l-0.9555 5.4162c-13.29-2.3435-25.047-10.012-32.55-21.229-7.5026-11.218-10.1-25.012-7.1903-38.19 3.2375-14.664 12.957-27.066 26.423-33.714 6.6518-3.2839 13.951-5.0281 21.356-5.1113zm-0.20003 0.5979c-1.124 0.026026-2.8147 0.0028-3.9884 0.67179-1.7504 1.2403-3.0482 3.2507-3.2939 5.4038 1.9377 0.50507 4.3953-0.23363 5.672-1.9539 1.069-1.1395 1.1097-2.7425 1.6102-4.1217zm-7.1753 0.42943c-1.0066 0.35326-2.2205 0.41005-3.2086 0.92139-1.8582 1.1403-2.823 3.37-3.1104 5.4493-0.03057 0.28531-0.02604 0.58029-0.03152 0.87126 1.9792 0.11499 3.9898-0.82617 5.0968-2.4867 1.0571-1.3748 0.9979-3.1383 1.2537-4.7553zm11.788 0.10284c-0.58782 0.012273-1.1705 0.087137-1.6294 0.24805-1.8588 0.95685-3.3971 2.7219-3.9279 4.748 1.6856 0.76121 3.9424 0.55819 5.4513-0.59686 1.508-0.92356 1.8516-2.6022 2.5373-4.0483-0.4577-0.21798-1.4517-0.37134-2.4314-0.35088zm5.9836 1.3792c-0.26654 0.00403-0.5294 0.037406-0.78445 0.11162-1.9617 0.68575-3.7297 2.2262-4.4907 4.1951 1.5675 0.90709 3.8563 1.1057 5.4973 0.12196 1.6775-0.69009 2.122-2.4255 3.0665-3.745-0.91351-0.16577-2.1337-0.70113-3.2887-0.68368zm-24.865 0.093017c-0.52709 0.29469-1.0395 0.62048-1.6464 0.74517-2.5181 0.79336-3.493 3.5837-3.7243 5.9697-0.0199 0.48857 0.03927 0.97575 0.10542 1.4588 1.0124-0.07884 2.0296-0.4755 2.8737-1.0625 2.3084-1.5542 2.7778-4.5634 2.3916-7.1112zm-6.7267 2.6712c-0.4783 0.37435-0.93594 0.79589-1.5126 1.0144-2.3593 1.1149-2.9483 3.956-2.9084 6.3211-0.0078 0.55555 0.18659 1.0844 0.30386 1.6226 1.6173-0.33709 3.0409-1.5561 3.8385-3.0153 1.0441-1.8277 0.54795-3.9729 0.27853-5.9428zm20.553 1.4862c-0.14608-0.00212-0.2913 5.556e-4 -0.43615 0.00827-0.0086 1.9436 0.77182 3.9015 2.3001 5.1609 1.3217 1.1199 3.0976 1.2348 4.7599 1.2826-0.49595-1.0723-0.477-2.3162-1.0495-3.3631-1.0966-1.9283-3.3831-3.0568-5.5743-3.0887zm-5.1806 0.33073c-0.54241-0.018894-1.0809 0.024048-1.5942 0.12971 0.17769 1.7523 1.1466 3.5456 2.6655 4.5728 1.5098 1.0898 3.4462 0.86198 5.1919 0.68575-0.28773-0.5603-0.65964-1.0821-0.77308-1.7219-0.72027-2.3407-3.1397-3.5846-5.4901-3.6664zm18.362 0.24546c-0.86852-0.00183-1.7347 0.16969-2.5125 0.52245-0.0072 0.2463 0.13792 0.44316 0.20722 0.67024 1.0159 2.5891 3.9421 4.6263 6.7582 3.5429 0.5956-0.14572 0.96388-0.27451 1.3229-0.416-0.15904-0.35851-0.35935-0.75831-0.50953-1.0423-0.81234-2.136-3.0468-3.2727-5.2663-3.2773zm-7.059 0.050643c-0.12547-0.00329-0.25164-0.00108-0.37775 0.00723-0.16985 2.1594 0.57371 4.4965 2.3606 5.8224 1.0294 0.93067 2.5169 0.87891 3.7931 1.1808 0.08449-0.78938-0.35365-3.2698-0.91106-4.2065-1.1894-1.4379-2.9827-2.7546-4.8648-2.804zm-16.58 0.88315c-0.8246 7.409e-4 -1.6464 0.14492-2.3947 0.4253l-0.06976 0.12041c0.62415 1.8726 2.0107 3.6909 3.9646 4.2509 1.5512 0.60969 3.0697-0.11504 4.5599-0.40256-0.89157-0.96449-1.1715-2.3412-2.2391-3.1683-1.0643-0.82968-2.4466-1.227-3.821-1.2258zm-16.395 1.1219c-0.23592-0.00643-0.67648 0.66826-1.0568 0.86248-1.8386 1.0202-2.5712 3.0958-2.573 5.0865 0.0073 1.1387 0.11038 2.2838 0.61185 3.3125 1.0165-0.29456 1.9931-1.1939 2.6732-2.0536 1.4585-1.893 1.4475-4.5406 0.5147-6.6678 0.0022-0.3936-0.06278-0.53709-0.17002-0.54002zm11.297 0.81339c-1.1744 0.03516-2.3541 0.38244-3.3259 0.96997 0.72536 1.7574 2.4227 3.3155 4.3656 3.6111 1.7469 0.55735 3.0206-0.65003 4.5439-1.0738-0.61617-0.77962-1.465-1.8698-2.2893-2.6055-0.95079-0.66002-2.12-0.93691-3.2944-0.90175zm-4.3129 2.9667c-1.6089-0.02518-3.2607 0.50461-4.4581 1.5699 1.0911 1.8429 3.276 3.1285 5.4705 2.8127 1.502-0.0172 2.4704-1.2197 3.7409-1.7875-1.0867-0.73668-1.8845-1.9496-3.1771-2.3844-0.50846-0.13236-1.0398-0.20245-1.5761-0.21084zm21.067 0.32556c-19.865 0-36 16.135-36 36 0 19.865 16.135 36 36 36 19.865 0 36-16.135 36-36 0-19.865-16.135-36-36-36zm-33.8 0.59996c-1.2624 1.2874-2.9368 3.1024-2.7456 5.0777-0.0084 1.5718 0.19673 3.2524 1.094 4.5852 2.7261-1.4452 3.977-5.4294 2.4154-8.1943-0.16368-0.26861-0.36378-0.96864-0.76378-1.4686zm33.8 0.83974a34.56 34.56 0 0 1 34.56 34.56 34.56 34.56 0 0 1-34.56 34.56 34.56 34.56 0 0 1-34.56-34.56 34.56 34.56 0 0 1 34.56-34.56zm0 0.51521c-4.8236 0-8.7499 3.9263-8.7499 8.7499s3.9262 8.7504 8.7499 8.7504c4.8236 0 8.7499-3.9268 8.7499-8.7504s-3.9263-8.7499-8.7499-8.7499zm-25.643 1.3276c-1.7785-0.05802-3.6236 0.76992-4.8721 2.0071l5.29e-4 0.0016-0.11937 0.14056c1.3462 1.5831 3.4406 2.6696 5.5475 2.1813 1.5499-0.16685 2.5101-1.4547 3.7321-2.2376-0.90481-0.4655-1.6343-1.2562-2.5564-1.7219-0.55351-0.2339-1.1393-0.3517-1.7322-0.37104zm25.216 0.185a0.50005 0.50005 0 0 0-0.04961 0.08837l-1.4118 4.548-4.7615-0.06304a0.50005 0.50005 0 0 0-0.10697 0.02635c1.003-2.5773 3.4348-4.4324 6.3298-4.5997zm0.85576 0c2.8916 0.16727 5.3212 2.0184 6.3262 4.5909a0.50005 0.50005 0 0 0-0.10335-0.01757l-4.7615 0.06304-1.4118-4.548a0.50005 0.50005 0 0 0-0.04961-0.08837zm-39.015 2.4546c-0.66337 1.2294-1.9285 2.4914-2.0402 4.0592-0.033533 2.0801 0.47279 4.335 1.9441 5.8766 1.5632-1.5049 2.4946-3.6914 2.1105-5.8761-0.10764-1.6017-1.2539-2.749-2.0143-4.0597zm8.8982 1.6671c-2.0953-0.03594-4.1664 1.343-5.349 3.0293 1.3542 1.3494 3.6534 1.9827 5.5134 1.2935 1.5906-0.44648 2.5004-1.8957 3.5941-3.02-0.82522-0.22132-1.5391-0.69372-2.3146-1.0382-0.47549-0.17259-0.96032-0.25629-1.4438-0.26458zm22.673 1.2774a0.50005 0.50005 0 0 0 0.07028 0.08268l3.8892 2.7476-1.5312 4.5093a0.50005 0.50005 0 0 0-0.0083 0.11162c-1.6214-1.3281-2.6541-3.3469-2.6541-5.6131 0-0.63544 0.08153-1.2514 0.23409-1.8381zm14.034 0.0083c0.15118 0.58428 0.23203 1.1974 0.23203 1.8299 0 2.2628-1.0296 4.2793-2.6469 5.6074a0.50005 0.50005 0 0 0-0.01551-0.10594l-1.5312-4.5093 3.8892-2.7476a0.50005 0.50005 0 0 0 0.07234-0.07441zm6.9794 3.1486c-1.3684 1.4284-3.8437 3.9742-5.2018 5.4028l1.0806 1.0402c0.36018 0.3468 1.7742 0.32007 2.6386 1.1524 0.93648 0.90168 0.60317 1.9689-0.09043 2.6892l-10.903 11.323-11.152-13.415-0.81029 0.27182-1.4583-3.5977c-0.12249-0.27782-0.34296-0.49999-0.62012-0.62425l-5.0436-2.2712c-0.10607-0.048-0.23056-0.03209-0.32091 0.04134l-0.13694 0.11214 2.7668 3.4044c0.21803-0.03845 0.4396 0.04364 0.57981 0.21497 0.21365 0.26916 0.16858 0.66095-0.10077 0.87436-0.26423 0.2197-0.65691 0.18367-0.87592-0.08113-0.1387-0.17247-0.17387-0.40644-0.09147-0.61185l-2.7668-3.4044-0.14831 0.12092c-0.09063 0.07351-0.13196 0.19207-0.10645 0.30592l1.2004 5.393c0.06546 0.29626 0.23839 0.5578 0.48472 0.73381l3.2231 2.1642-0.43202 0.7369 11.336 14.278-16.183 16.807c-0.48552 0.50425-0.46395 1.6358 0.04031 2.1213l2.1611 2.0805c0.50425 0.48552 1.6304 0.46907 2.1208-0.04031l15.625-16.228 12.572 15.835c0.63044 0.77623 1.6936 0.81474 3.6339-0.76171 1.9403-1.5764 2.43-2.8764 1.7994-3.6525l-13.437-16.165 11.366-11.804c0.6936-0.72036 1.1802-1.0086 2.6934-0.54984 1.5485 0.46942 3.7096 2.5504 4.8436 6.4187 2.1861-3.1255-0.90802-10.591-2.0019-12.339l-3.6018-3.468c-1.0672-0.33342-1.4138 0.026802-2.3502-0.87488-0.86444-0.83232-0.89142-2.2463-1.2516-2.5931zm-56.699 0.07958c-0.31619 1.3485-1.3338 2.4472-1.3699 3.8861 0.00271 2.209 0.97547 4.4853 2.6582 5.9454 0.944-0.94239 1.5242-2.4812 1.5875-3.885 0.26316-2.3703-1.195-4.4485-2.8758-5.9464zm9.8273 0.17157c-2.375-0.04175-4.5228 1.7504-5.5842 3.7853v0.0021l0.02377 0.1002c1.6643 1.0049 3.9239 1.3363 5.6529 0.29094 1.4348-0.6834 2.0799-2.1808 2.9771-3.39-1.0632-0.05783-1.978-0.75818-3.0696-0.78858zm32.874 1.6433 3.8153 2.8494a0.50005 0.50005 0 0 0 0.09612 0.04754c-1.1275 0.7219-2.4692 1.14-3.9114 1.14-1.4455 0-2.7905-0.42016-3.9197-1.1451a0.50005 0.50005 0 0 0 0.10439-0.04237zm-36.105 4.2127c-0.14161 0.0037-0.28468 0.01812-0.42995 0.04651-1.9908 0.45257-3.701 2.0907-4.4292 3.9863v0.0026l-0.011369 0.0832c1.4909 0.70281 3.3392 0.8358 4.8152 0.05839 1.5011-0.76833 2.1959-2.3339 2.959-3.7372-0.99903 0.03635-1.9124-0.46573-2.9037-0.43977zm-9.7141 1.1844c-0.19731 1.1813-0.91206 2.2588-0.97307 3.4995-0.064159 2.3566 1.3403 4.8092 3.2753 6.1324 1.0349-1.5495 1.495-3.7757 0.88935-5.6658-0.44158-1.7517-1.9327-2.8132-3.1915-3.9662zm8.8672 4.2922c-0.81116-0.0105-1.7351 0.04969-2.4608 0.34778-1.8377 1.0328-3.2192 2.9864-3.5993 5.0581l-0.010335 0.09767c1.9008 0.53643 4.0924 0.0345 5.4508-1.4211 1.1935-1.0561 1.3455-2.6422 1.8903-4.023-0.33815-0.02133-0.78403-0.05312-1.2707-0.05943zm-10.973 3.0675c-0.064288 0.80769-0.42011 1.899-0.49971 2.8515 0.00331 0.47061-0.025194 0.95026 0.077515 1.4102 0.59688 1.9792 2.0246 3.979 3.991 4.747 0.82743-1.9697 0.9141-4.4219-0.29249-6.2653-0.65486-1.4217-2.1529-1.8496-3.2763-2.7435zm10.416 2.3632c-0.86568 0.20236-2.2437 0.28303-3.2225 0.79013-1.909 1.1843-2.9543 3.5115-3.098 5.6916l-0.00878 0.09767c1.8344 0.33614 3.8517-0.58385 4.977-2.1043 1.0412-1.2727 1.0638-2.938 1.3524-4.4752zm-0.36122 4.6886c-0.89185 0.80606-2.1404 1.0399-2.9316 1.9932-1.3794 1.721-2.038 4.1095-1.7213 6.2983v5.3e-4l0.029972 0.07493c1.7025-0.5169 3.2343-1.7353 4.008-3.3435 0.83785-1.5565 0.66463-3.3302 0.61495-5.0235zm-10.934 1.3472c0.39807 1.3413 0.067017 2.8165 0.74724 4.0969 1.0135 1.7454 3.0061 2.9852 5.054 2.9735 0.3504-1.5606 0.025173-3.4469-0.90175-4.839-1.0203-1.6798-3.0656-2.166-4.8994-2.2314zm11.353 4.5015c-0.77583 0.58096-2.2305 1.6589-2.9311 2.82-0.95566 2.0064-1.2489 4.4701-0.52245 6.5908h5.292e-4l0.038241 0.0863c1.9814-1.0021 3.4691-2.9473 3.8396-5.1428 0.40464-1.4943-0.21832-2.9077-0.42478-4.3543zm-10.44 3.5011c0.41417 1.1206 0.32595 2.4065 0.88728 3.5088 1.0154 1.9132 3.4923 2.9951 5.6167 2.6934 0.18806-1.778-0.49512-4.0986-2.0789-5.2875-1.2445-1.0697-2.9125-0.82899-4.4251-0.91467zm11.525 2.1167c-0.62155 0.77143-1.7177 1.796-2.2701 2.8732-0.77803 1.7591-0.82475 3.8474-0.23513 5.6829a0.6 0.6 0 0 0-0.25218 0.04392c-0.44401-1.4454-1.4588-2.7852-2.8748-3.328-1.3473-0.70911-2.7061-0.02635-4.0768 0.03255 0.37922 0.78887 0.55232 1.8045 0.96428 2.6557v5.29e-4l0.27337 0.45992 0.3359 0.49506c0.21989 0.20935 0.46262 0.39586 0.71934 0.56379 5.7365 13.451 17.338 23.521 31.463 27.306a0.6 0.6 0 0 0 0.73639-0.42375 0.6 0.6 0 0 0-0.42581-0.73639c-13.347-3.5762-24.38-12.904-30.138-25.414 0.35116 0.09647 0.71122 0.16334 1.0738 0.19637a0.6 0.6 0 0 0 0.048059 0.30334c5.7766 11.906 16.44 20.718 29.223 24.143a0.6 0.6 0 0 0 0.73639-0.42581 0.6 0.6 0 0 0-0.42581-0.73432c-12.374-3.3155-22.707-11.813-28.354-23.302 0.27629-0.03248 0.54819-0.08549 0.81339-0.15916 5.5622 11.177 15.66 19.451 27.748 22.69a0.6 0.6 0 0 0 0.73639-0.42581 0.6 0.6 0 0 0-0.42581-0.73432c-11.831-3.1702-21.701-11.298-27.088-22.275 0.22208-0.16203 0.43234-0.34103 0.63149-0.5333 5.265 10.86 14.991 18.907 26.663 22.034a0.6 0.6 0 0 0 0.73639-0.42375 0.6 0.6 0 0 0-0.42582-0.73432c-11.476-3.075-21.016-11.045-26.084-21.791a0.6 0.6 0 0 0-0.05426-0.07286c0.18856-0.271 0.36018-0.55542 0.51056-0.85163 4.8811 10.802 14.355 18.866 25.835 21.942a0.6 0.6 0 0 0 0.73639-0.42375 0.6 0.6 0 0 0-0.42581-0.73432c-11.408-3.0568-20.773-11.193-25.396-22.061a0.6 0.6 0 0 0-0.18138-0.22531c0.10428-0.40464 0.17438-0.8162 0.20567-1.2283 0.21834-1.5679-0.56543-2.9571-1.0557-4.3842zm28.653 14.371c-0.02397 0.20642 0.05769 0.53773 0.22118 0.72192 0.04693 0.28949 0.29104 0.52123 0.52141 0.69505 0.21765 0.17769 0.50077 0.2396 0.78342 0.23719 0.23807-0.04584 0.42342 0.01839 0.27337 0.27905-0.07934 0.35863-0.63844 0.18375-0.91415 0.32814-0.70335 0.13095-1.4154 0.2029-2.127 0.27027-0.35539-0.03227-0.66305 0.19597-0.98237 0.09405-0.28452-0.17705-0.27908 0.05518-0.10387 0.24495 0.14441 0.22161 0.38583 0.40552 0.54415 0.64854 0.13222 0.42429 0.45771 0.13661 0.72244 5.29e-4 0.24019-0.16757 0.53418-0.14769 0.80822-0.22634 0.31161-0.08875 0.66426-0.08933 0.96635-0.21756 0.18807-0.01794 0.65769-0.28594 0.35708 0.04289-0.18306 0.22494-0.44737 0.45571-0.40256 0.78135-0.09259 0.34947 0.50067 0.28927 0.17157 0.53175-0.26792 0.30334-0.54579 0.56535-0.8816 0.79323-0.09998 0.19769-0.18042 0.58136 0.12609 0.63665 0.34786-0.08887 0.71759-0.19694 1.0806-0.27699 0.51401-0.19174 0.17945 0.44201 0.24702 0.70487-0.025 0.51418-0.01855 1.0447 0.04806 1.5482 0.13234 0.38881 0.1461 0.27863 0.14056 0.57154 0.17431 0.02881 0.11482-0.3769 0.24185-0.50746 0.14697-0.26463 0.1826-0.59142 0.1726-0.8878 0.0016-0.28607 0.04772-0.5652 0.03824-0.83199 0.08024-0.28917-0.15456-0.90014 0.34985-0.81339 0.28605-0.1316 0.85293-0.0055 0.96428-0.30489-0.19734-0.24768-0.51623-0.23056-0.7028-0.44235-0.22894-0.105-0.3201-0.36911-0.39998-0.59376-0.07745-0.26124-0.0087-0.46654 0.04548-0.73691 0.06087-0.29851-0.07726-0.70807 0.37724-0.68988 0.37279-0.05603 0.75694-0.10214 1.1203-0.22118 0.21797-0.10052 0.70376-0.16388 0.65939-0.4346-0.061-0.21965-0.50619-0.52856-0.77824-0.36535-0.34505 0.16673-0.70623 0.29116-1.0842 0.3607-0.2579 0.14459-0.52564-0.46878-0.0832-0.34882 0.22307-0.05021 0.58709-0.19298 0.43512-0.43201-0.19577-0.27431-0.55252-0.43892-0.86041-0.57671-0.38101 0.0381-0.76206 0.10616-1.1482 0.08475-0.19793 0.02532-0.5013-0.11061-0.60255-0.31109-0.13581-0.08819-0.21534-0.26084-0.34468-0.35657zm-5.2059 0.01447c-0.03446 0.27303 0.35009 0.45347 0.21601 0.75086 0.06955 0.38928 0.0037 0.79908-0.05736 1.1891-0.12954 0.28755-0.57919 0.26473-0.85008 0.38189-0.14676 0.10816-0.63519 0.03548-0.61908 0.17622 0.13054 0.3078 0.49003 0.27424 0.7674 0.25787 0.16776 0.0973 0.63062-0.2106 0.57826 0.02635 0.18567 0.4017-0.40409 0.48636-0.67489 0.56276-0.35348 0.06259 0.15694 0.38154 0.10335 0.41651-0.18425 0.10871-0.34056 0.25579-0.53847 0.35553-0.3006 0.18748-0.53466 0.43751-0.84439 0.6103-0.31828 0.076-0.60934 0.24742-0.93069 0.30592-0.31101 0.0267-0.60261 0.13524-0.90486 0.07286 0.05771 0.34474 0.38343 0.5067 0.61857 0.67954 0.29087 0.1827 0.48242-0.09418 0.74466-0.18345 0.22144-0.07899 0.4525-0.1833 0.68161-0.24288 0.23436-0.13304 0.56623-0.14244 0.82837-0.2527 0.2243-0.0444 0.46949-0.20099 0.70952-0.30127 0.17439-0.0426 0.68505-0.37402 0.68368-0.23513-0.07322 0.20129-0.19497 0.3575-0.25114 0.56276-0.14508 0.32393-0.1392 0.71821-0.22583 1.0346-0.07044 0.33509-0.17363 0.66374-0.18603 1.0087 0.06168 0.238 0.06001 0.49711 0.19275 0.69867 0.1115 0.25544 0.44056-0.01749 0.26355-0.17208 0.05111-0.14892 0.07281-0.3241 0.31729-0.3235 0.24011-0.11156 0.45874-0.2381 0.68936-0.3576 0.33774-0.22772 0.15809 0.3644 0.15658 0.56327-0.07209 0.35028-0.60823 0.23851-0.85834 0.14779-0.02935 0.0768 0.34826 0.29482 0.50385 0.42064 0.21562 0.10222 0.53853 0.35029 0.75396 0.15606 0.09405-0.19464 0.19356-0.43327 0.17157-0.67128-0.01564-0.24382 0.0118-0.48184-0.04754-0.64596-0.03435-0.36427-0.09934-0.72605-0.17415-1.0837-0.06001-0.19011-0.01871-0.42581-0.17208-0.62994-0.17924-0.22278-0.32044-0.50302-0.57154-0.64596-0.05246-0.14153 0.21664-0.36204 0.30541-0.51573 0.22589-0.0989 0.46855-0.26559 0.65888-0.43098-0.01871-0.11647 0.31486-0.2106 0.35812-0.37879-0.2169-0.2694-0.58945-0.26175-0.78548 0.03049-0.31516 0.16968-0.61876 0.36812-0.97513 0.45424-0.20955 0.14034-0.23016-0.50977 0.02119-0.44907 0.1536-0.0705 0.61536-0.23947 0.22996-0.3359-0.44339 0.10182-0.47862-0.52041-0.09043-0.56069 0.23289-0.10659 0.53587-0.16461 0.73794-0.35915 0.25728-0.17929-0.0013-0.36097-0.06098-0.52917-0.08085-0.18932-0.28555-0.25132-0.34313-0.29145-0.10607-0.20954-0.44875-0.48749-0.09302-0.63252 0.05371-0.29907-0.37054-0.33413-0.56689-0.46044-0.15362-0.066-0.32187-0.09747-0.47026-0.17363zm14.973 0.57206c-0.09662 0.0086-0.1208 0.30696-0.19275 0.41134-0.13151 0.21769-0.19234 0.45852-0.31626 0.67541-0.06672 0.25816-0.21956 0.4763-0.30696 0.71882-0.08898 0.17345-0.18431 0.35069-0.25373 0.555-0.09876 0.05091-0.13325 0.33451-0.25063 0.47439-0.11723 0.19766-0.19959 0.37916-0.28939 0.57723-0.10071 0.36478-0.17369-0.12678-0.25218-0.23823-0.04146-0.14915-0.20003-0.37941-0.08888-0.52348-0.11086-0.05302 0.25455-0.19831 0.12919-0.30799-0.01508-0.21485 0.04965-0.43634-0.06253-0.63304-0.07035-0.22457-0.51813 0.35098-0.60616-0.04496-0.21891-0.15351-0.36361-0.40502-0.5209-0.632-0.2371-0.13984-0.18005 0.04906-0.12299 0.21549 0.14545 0.2506 0.24839 0.52183 0.35295 0.79323-0.25287 0.12383-0.4898 0.27256-0.74518 0.39791-0.20793 0.13612-0.46208 0.19342-0.64596 0.33796-0.1808 0.0605-0.41769 0.24496-0.64802 0.11369-0.25657-0.1643-0.23126 0.08287-0.19224 0.25632 0.08161 0.20948 0.18379 0.43187 0.37259 0.58136 0.27697 0.16628 0.63005 0.11178 0.93172 0.04238 0.29224-0.07182 0.49183-0.38611 0.79272-0.39481 0.04739-0.06413 0.35812-0.47798 0.5116-0.17983 0.11305 0.18517 0.21336 0.41495 0.43925 0.52193 0.15367-0.0503 0.23491 0.03881 0.10284 0.15503-0.11111 0.14906-0.13406 0.43441-0.39946 0.37569-0.44064 0.07471-0.90112 0.06949-1.324 0.22169-0.18644 0.0814-0.73404 0.01934-0.57102 0.31368 0.01939 0.18646 0.03699 0.03555 0.08268 0.1726 0.12417 0.198 0.29016 0.37112 0.50591 0.49816 0.05852 0.02561 0.12689 0.03137 0.19068 0.02379 0.21768-0.12021 0.4639-0.20728 0.71417-0.26045 0.18604-0.06618 0.49479-0.10786 0.62012-0.13281 0.26972-0.10999 0.57747-0.08645 0.84956-0.19017 0.25298-0.07938 0.5311-0.16223 0.80925-0.18294 0.30015-0.01942 0.58406-0.03345 0.8692-0.13281 0.18721 0.08019 0.14414-0.27164-0.0078-0.33951-0.17088-0.12497-0.22263-0.36304-0.49093-0.35864-0.3035 0.04136-0.59894 0.12714-0.90899 0.13694-0.27525 0.12027-0.23865-0.07497-0.0925-0.23203 0.06409-0.1348 0.11755-0.22138 0.21859-0.33073 0.03566-0.27962 0.24889-0.12416 0.39532-0.02894 0.24427 0.07329 0.50397-0.01913 0.71572-0.12764 0.29259-0.03883 0.55451-0.16932 0.83922-0.23306 0.16938-0.0087 0.20034-0.18644 0.10025-0.21497-0.05499-0.10911-0.44556-0.19303-0.56431-0.35967-0.19901-0.37293-0.52116-0.02548-0.817 0.01757-0.16497 0.11312-0.29828 0.04665-0.1633-0.13643 0.09439-0.21991 0.21977-0.4222 0.26872-0.66508 0.08188-0.17796 0.1582-0.35518 0.2496-0.5209 0.11748-0.16782 0.09646-0.3818 0.14883-0.56017-0.069-0.16069-0.1412-0.36044-0.25166-0.52038-0.05283-0.07956-0.09286-0.1088-0.12506-0.10594zm5.0726 0.13746c-0.07412 0.0363-0.03062 0.16723-0.11989 0.1664 0.17966 0.0512 0.09581 0.2701 0.0646 0.42788-0.08106 0.23937-0.15404 0.37649-0.23461 0.62942-0.08828 0.2164-0.1573 0.44967-0.28887 0.65732-0.17493 0.26841-0.17525 0.58453-0.21187 0.88574 0.08115 0.35368 0.4005 0.0448 0.55552-0.077 0.27496-0.29721 0.03609 0.20767 0.0098 0.36639-0.10733 0.24983-0.09379 0.55631-0.18759 0.82992-0.05139 0.40558-0.14326 0.81093-0.10904 1.2237 0.03202 0.29181-0.04716 0.58437 0.04393 0.86403 0.01013 0.13735 0.21882 0.32556-0.06098 0.24391-0.2648-0.0309-0.54038 0.03217-0.80925-0.05633-0.1414-0.046-0.51433 0.0076-0.21911-0.15606 0.29943-0.1553 0.3054-0.52548-0.0031-0.67489-0.12054-0.21762-0.03921-0.52246 0.04237-0.75654 0.08205-0.21792 0.24412-0.4902 0.09457-0.7121-0.14017-0.2159-0.4406-0.2289-0.60152-0.40204-0.16768-0.12855-0.53811-0.0316-0.26562 0.17828 0.09763 0.17419 0.39742 0.16404 0.23926 0.4501-0.11429 0.13316-0.07938 0.35349-0.09663 0.55036-0.01288 0.2731 0.04799 0.54966 0.20206 0.77308 0.10391 0.12523 0.30247 0.19526 0.10387 0.39067-0.07832 0.15439-0.2089 0.29644-0.34106 0.2744 0.12878 0.069 0.03888 0.18668 0.21084 0.18759 0.2113 0.19466 0.52608 0.20792 0.78031 0.31522 0.20371 0.0785 0.46593 0.11936 0.69608 0.15245 0.28792 0.0302 0.58015 0.06181 0.86403 0.1018 0.35732 0.0616 0.71952 0.11951 1.0857 0.10749 0.27688-0.0834 0.63633 0.14554 0.83974-0.08423 0.11488-0.21594 0.13858-0.44855 0.19172-0.63355 0.04103-0.20312 0.14291-0.39248 0.16795-0.60461-0.03842-0.16329 0.15306-0.66581-0.11834-0.40773-0.15658 0.20255-0.35044 0.39383-0.54002 0.56224-0.25238 0.26753-0.57874 0.5118-0.96066 0.52503-0.27123 0.0812-0.5732 0.01278-0.85576 0.03049-0.29065-0.0577-0.08832-0.49826-0.18087-0.71624 0.07249-0.2019 0.42639-0.23186 0.63562-0.32504 0.28697-0.055 0.57727-0.09318 0.87023-0.12868 0.25894-0.0724 0.52672 0.12186 0.72915 0.1478 0.31731-4e-3 0.1437-0.32402 0.0863-0.48886-0.07813-0.24066-0.30361-0.40132-0.36277-0.64286-0.11618-0.2155-0.22239-0.44888-0.42013-0.6072-0.1699-0.21317 0.52488-0.20732 0.24546-0.44907-0.10332-0.11627-0.47385-0.13834-0.12919-0.22634 0.1506-0.13972 0.68221-7.94e-4 0.56844-0.30127-0.16573-0.20085-0.53976-0.19561-0.65267-0.38241 0.05259-0.22493 0.05906-0.42398-0.09715-0.59841 0.0028-0.21478-0.46317-0.38631-0.39222-0.01654-0.0028 0.25044-0.04423 0.46217-0.08165 0.68988-0.2387 0.059-0.48231 0.27886-0.66714 0.3359 0.05661-0.18053 0.12991-0.40161 0.21239-0.59686 0.11073-0.19479 0.2613-0.43346-0.05116-0.51987-0.36757 0.0283 0.07957-0.34367-0.03256-0.54932 0.01415-0.28125-0.06462-0.56803-0.23151-0.78755-0.04501-0.0618-0.14444-0.13333-0.21704-0.16588zm5.4327 0.38912c-0.01339 7.94e-4 -0.02604 0.0046-0.03772 0.01241 0.01746 0.06251-0.05886 0.01246-0.05426 0.0646-0.06438 0.05052-0.14907 0.07839-0.21291 0.13332-0.04117 0.07734-0.1341 0.09556-0.20567 0.13436-0.06947 0.0507-0.15268 0.02056-0.22841 0.0072-0.08454-0.02904-0.03925 0.0621-0.01913 0.10025 0.04034 0.06256 0.04867 0.14278 0.0894 0.20051 0.0634 0.0482 0.1127 0.10957 0.19017 0.14418 0.03619 0.05892 0.11045 0.06017 0.14986 0.11317 0.07556 0.04224 0.15519 0.08867 0.24184 0.09974 0.0454 0.01807 0.10461 0.02431 0.1571 0.04237 0.06576 0.04537 0.13486-0.05466 0.20826-0.04496 0.09682-0.0011 0.1375-0.1134 0.22427-0.13952 0.0543-0.04601 0.11522-0.08568 0.19275-0.08888 0.06084-0.04481 0.13752-0.08268 0.17984-0.14986 0.06362-0.04313 0.14971-0.06476 0.18603-0.14624 0.05397-0.06722-0.02088-0.13506-0.03617-0.19999-0.05493-0.06735-0.13168-0.1409-0.22634-0.12402-0.05362-0.04354-0.1295-0.02716-0.1943-0.03256-0.06436 0.02151-0.02371-0.07228-0.08062-0.04444-0.04974 0.06353-0.13711-0.01812-0.19172-0.03049-0.0034 0.07611-0.09316 0.01384-0.14573 0.0041-0.05759-0.0085-0.1285-0.05898-0.18655-0.05529zm-24.708 0.0894c0.17861 0.12587 0.11945 0.54474-0.09715 0.6072 0.02918-0.23293 0.0031-0.36825 0.09715-0.6072zm16.79 1.1012c-0.02857 7.94e-4 -0.0561 0.0057-0.07906 0.02479-0.0521 0.0109-0.10978 0.0057-0.15555 0.03876-0.04819 0.02048-0.04249 0.06398-0.01291 0.09508-0.0019 0.05581 0.04876 0.09023 0.04496 0.14883-0.0024 0.05599 0.04713 0.07289 0.06666 0.11369 0.05512 0.0086 0.09797 0.04791 0.14521 0.07441 0.13759 0.07746 0.28621 0.1444 0.44493 0.1602 0.05293 0.0096 0.10921 0.01691 0.15761 0.04031v-0.0011c0.02553 0.0104 0.05411-0.0084 0.08113-0.0088 0.1129 0.01259 0.22972 0.01519 0.33952-0.0186 0.05675-0.02135 0.1333-0.04532 0.14934-0.11162 0.0054-0.06123 0.01119-0.1313-0.02429-0.185-0.038-0.0071-0.03249-0.02606-0.03669-0.05736-0.036-0.0485-0.09917-0.06627-0.15296-0.08837-0.04806-0.0305-0.12249-0.0013-0.15658-0.04754-0.0653-0.01299-0.12527-0.04552-0.185-0.07441-0.05513-0.015-0.07886-0.0732-0.13488-0.0832-0.13342-0.0259-0.27054-0.01511-0.40566-0.01913-0.02751 0.0016-0.05722-0.0019-0.08578-0.0011zm10.991 0.14934c-0.09478 0.0039-0.18602 0.03374-0.25683 0.09767-0.17746 0.16452-0.03013 0.44799-0.0956 0.67128-0.10812 0.18666 0.03177 0.55304-0.25994 0.59066-0.23711 0.07583-0.47666 0.13161-0.71675 0.20309-0.22885 0.06533-0.44573 0.15701-0.65681 0.26924-0.2529 0.2235-0.10013-0.18698-0.06304-0.30954-0.04408-0.27767 0.13866-0.4678 0.2713-0.68368 0.1604-0.1372 0.02598-0.22708-0.03049-0.34313-0.26204-0.07267-0.55592 0.0091-0.81029-0.10232-0.22828-0.0078-0.37525 0.32904-0.51883 0.46819-0.16445 0.12518-0.37842 0.27719-0.51935 0.44752-0.17864 0.13577-0.35225 0.3423-0.59531 0.36122-0.26367-0.06326-0.18534 0.18261-0.06718 0.30592 0.17755 0.15316 0.44669 0.23393 0.68006 0.23823 0.22657-0.12271 0.01699 0.14073-0.05839 0.20619-0.13702 0.15096-0.29775 0.33546-0.46767 0.48317-0.16344 0.14079-0.46621 0.16115-0.37362 0.4532-0.0028 0.14201 0.06589 0.23399 0.15658 0.38344 0.18621 0.10705 0.40108 0.4153 0.60668 0.18759 0.17559-0.16299 0.38613-0.29299 0.55552-0.45579 0.13-0.22433 0.09645 0.10569 0.08113 0.21136-0.02458 0.21837-0.06946 0.48907 0.02739 0.68523 0.08466 0.19303 0.18676 0.40254 0.41031 0.47284v0.0011c0.23626 0.03573 0.189-0.3493 0.25787-0.5147-0.02024-0.23727 0.1049-0.44027 0.09198-0.67696 0.05443-0.14434-0.02506-0.27937 0.04186-0.44752 0.03044-0.19683-0.0066-0.47076 0.11265-0.59221 0.22269-0.12347 0.24689-0.557 0.54725-0.47284 0.26268-0.04796 0.53086-0.03066 0.79582-0.05581 0.37556-0.16947 0.28572 0.22192 0.24702 0.45578-0.02487 0.23702 0.06407 0.68664-0.31161 0.57671-0.3317-0.04669-0.12589 0.27809-0.06408 0.43822 0.09811 0.2043 0.25339 0.54636 0.5333 0.44338 0.22537-0.14126 0.53356-0.02577 0.7798-0.1571 0.2359-0.10697 0.50917-0.08807 0.73329-0.21187 0.31419-0.13897 0.1456-0.53781 0.10955-0.79013-0.25425-0.07546-0.52622-0.12003-0.77256 0.01085-0.14955-0.01622-0.47362 0.2464-0.5147 0.07286 0.06954-0.27339 0.0293-0.57056 0.16226-0.81649 0.02215-0.34226 0.42144-0.2039 0.64751-0.28474 0.25668-0.02945 0.47726-0.34124 0.32246-0.57568-0.19238-0.06525-0.42584-0.14936-0.63562-0.0739-0.3263 0.09689-0.14123-0.26014-0.04134-0.39171 0.12261-0.16695 0.22692-0.42615 0.08527-0.62012-0.10055-0.09984-0.26888-0.16513-0.42685-0.15865zm-21.787 0.85732c0.12944 0.2233-0.24341 0.0661-0.02273 0.03204zm14.256 0.02119c0.09844 0.31475-0.2786 0.51718-0.46767 0.71727-0.08269 0.098-0.4282 0.4143-0.293 0.08578 0.01688-0.22135 0.13027-0.36339 0.31264-0.47956 0.15222-0.10121 0.27213-0.25758 0.44804-0.32349zm-20.912 0.31264c0.0497 0.16538-0.3424 0.0768 0 0zm-0.23358 0.14624c0.15921 0.0853 0.38611 0.29159 0.04806 0.31006-0.35608 0.13166-0.69525 0.31063-1.0583 0.41703 0.14841-0.13532 0.37291-0.22625 0.49351-0.38809 0.18925-0.0792 0.32038-0.26321 0.51676-0.339zm21.599 0.54725c0.10607 0.26325 0.21491 0.5134 0.30334 0.78497 0.0159 0.16958 0.11552 0.2943-0.1235 0.27543-0.21217 0.1322-0.47381 0.09835-0.29662-0.17363-0.03351-0.18628 0.07797-0.26509 0.18552-0.35346-0.03395-0.19278-0.19604-0.30011-0.06873-0.5333zm-14.788 0.19068c0.09416 0.27658-0.13359 0.38778-0.35864 0.36535 0.10104-0.13919 0.25593-0.21971 0.35864-0.36535zm14.289 0.01241c0.12157 0.20871-0.37985 0.37177-0.46922 0.36845 0.15802-0.13269 0.32594-0.23301 0.46922-0.36845zm-13.578 0.05684c0.1959 0.07463-0.16254 0.16593 0 0zm13.068 0.04444c-0.07655 0.0913-0.31632 0.35732-0.37621 0.35502 0.02766-0.18452 0.23755-0.23926 0.37621-0.35502zm-19.4 0.22738c0.24115 0.19967 0.19132 0.555 0.26613 0.83716 0.07577 0.26734 0.05872 0.53483 0.13023 0.76894 0.15545 0.39611-0.5499-0.01617-0.28784-0.17932 0.07024-0.27264 0.07508-0.61714-0.16019-0.84698-0.2426-0.15334-0.21076-0.45611 0.05168-0.57981zm19.96 0.3855c0.169 0.36125-0.28775 0.29659-0.51212 0.3762 0.0021-0.0702 0.36609-0.23476 0.48369-0.36174zm-0.60203 0.12041c-0.12526 0.0772-0.30287 0.36576-0.41238 0.35967-0.04414-0.15939-0.01561-0.43164 0.20309-0.30386 0.06934-0.01611 0.14585-0.02701 0.20929-0.05581zm-19.706 0.08061c0.0861 0.25735-0.15441 0.5592-0.15865 0.8568-0.0955 0.25709 0.28795 0.46928 0.08733 0.65629-0.07889 0.14073-0.35945 0.58323-0.27905 0.16226 0.05618-0.25244 0.09571-0.46851 0.11472-0.72915-0.0079-0.30863 0.14562-0.61807 0.20257-0.89349 0.0358-4e-3 -5.3e-4 -0.05241 0.03307-0.05271zm12.19 0.49661c-0.02257 0.0019-0.07063 0.03948-0.09095 0.05684-0.06256 0.06374-0.13967 0.10853-0.18552 0.18087-0.03613-0.04707-0.02727-0.0011-0.0553 0.02585-0.1192 0.11354-0.24456 0.2208-0.36122 0.33693-0.07299 0.04827-0.1078 0.12814-0.2005 0.14263-0.10629 0.0051-0.13753 0.08869-0.15193 0.16898-0.04708 0.07729-0.06748 0.18291-0.05736 0.27389-0.06405 0.05536 0.03076 0.09947 0.02997 0.17105 0.03293 0.11382 0.02259 0.24963 0.11524 0.33952 0.07743 0.03192 0.14205 0.08965 0.22066 0.12299v5.29e-4c0.01974 0.01135 0.04272 0.02074 0.0646 0.02946 0.1046 0.06331 0.1905-0.02376 0.27957-0.06046 0.05838-0.04217 0.11468-0.07576 0.1788-0.09198 0.11226 0.0056 0.1256-0.12804 0.12609-0.20671-0.01463-0.08244 0.09501-0.11832 0.07286-0.18707 0.04377-0.01733 0.04139-0.07354 0.0832-0.09664 0.03242-0.08133 0.10652-0.12131 0.11472-0.19844 0.09736-0.03348 0.10707-0.14507 0.1819-0.20619 0.05303-0.07401 0.1199-0.13654 0.1726-0.20878 0.06156-0.0318 0.05522-0.10825 0.0987-0.16381 0.0856-0.07115-0.02805-0.09249-0.08475-0.05426-0.19784 0.08205-0.39409 0.16911-0.58136 0.2713-0.08338 0.034-0.15469 0.0646-0.22634 0.11265-0.0587 0.05469-0.08315 0.0037-0.11886-0.02687 0.01132-0.05649 0.06046-0.11057 0.06666-0.17932 0.04275 0.04501 0.03512-0.0336 0.0708-0.08165 0.06732-0.0416 0.05852-0.15146 0.11059-0.21497 0.02846-0.0793 0.09013-0.13836 0.12919-0.20929 0.01625-0.0364 0.01148-0.04817-0.0021-0.04702zm1.9456 0.36742c-0.0435 0.0021-0.06279 0.06241-0.06459 0.1111-8e-3 0.05905-0.03279 0.13345 0.01757 0.18139-0.029 0.02233-0.05076 0.08518-0.10077 0.10904-0.02304 0.06166-0.06956 0.11433-0.09354 0.17622-0.06071 0.02241-0.0613 0.10677-0.12557 0.11886-0.02466 0.05803-0.10143 0.07719-0.13074 0.13591-0.06109 0.03685-0.08982 0.10354-0.15968 0.13436-0.06257 0.01373-0.04767 0.05779-0.01394 0.09353 0.07624 0.07333 0.17903 0.11687 0.27905 0.15348 0.10251 0.02133 0.21048 0.02 0.31471 0.01241 0.0583-0.02593 0.12099-5.29e-4 0.1819-0.01394 0.07277-0.01405 0.15781-0.0217 0.20929-0.07803 0.07334-0.02299 0.13171-0.07915 0.21291-0.08785 0.07061 0.01939 0.0815-0.05997 0.14314-0.06977 0.06373-0.05823 0.0705-0.15189 0.0615-0.23099-0.0021-0.06495-0.04729-0.11277-0.09767-0.14883-0.0031-0.06836-0.03366-0.1327-0.11214-0.14883-0.06171 3e-3 -0.05505-0.06042-0.10646-0.07131-0.0021-0.04849-0.02508-0.07943-0.07338-0.09664-0.0498-0.04043-0.10977-0.07854-0.13901-0.13487-0.061-0.02738-0.07979-0.10153-0.15038-0.12506-0.02011-0.01482-0.03769-0.02085-0.0522-0.02016z" color="#000000" fill="#fdcf30" style="-inkscape-stroke:none;paint-order:stroke fill markers"/>
 </g>
 <metadata>
  <rdf:RDF>
   <cc:Work rdf:about="">
    <dc:title>青年共进社社徽-新-2版</dc:title>
   </cc:Work>
  </rdf:RDF>
 </metadata>
</svg>
